<svg width="2537" height="674" viewBox="0 0 2537 674" fill="none" xmlns="http://www.w3.org/2000/svg">
<path fill-rule="evenodd" clip-rule="evenodd" d="M173.142 289.341L385.697 647.944L598.232 289.364L761.193 564.299C789.643 612.299 755.029 673.025 699.253 673.025H72.1107C16.3344 673.025 -18.2791 612.299 10.1708 564.299L173.142 289.341ZM447.637 35.2921L559.835 224.583L385.697 518.382L211.541 224.558L323.727 35.2921C351.63 -11.764 419.734 -11.764 447.637 35.2921ZM385.697 199.524C355.486 199.524 331.044 223.993 331.044 254.177C331.044 284.361 355.486 308.83 385.697 308.83C415.877 308.83 440.35 284.361 440.35 254.177C440.35 223.993 415.877 199.524 385.697 199.524Z" fill="url(#paint0_linear)"/>
<path fill-rule="evenodd" clip-rule="evenodd" d="M872.233 173.999H947.172L1037.36 410.143L1127.11 173.999H1200.75L1072.21 499.026H999.89L872.233 173.999Z" fill="url(#paint1_linear)"/>
<path fill-rule="evenodd" clip-rule="evenodd" d="M1405.73 329.323C1444.51 329.323 1461.94 319.74 1461.94 283.14C1461.94 245.669 1445.38 236.086 1404.86 236.086H1321.64V329.323H1405.73ZM1393.97 390.756H1321.64V497.937H1251.93V175.087H1407.91C1509.42 175.087 1533.82 218.659 1533.82 280.526C1533.82 324.966 1519.45 365.923 1465.86 382.912L1529.9 497.937H1453.66L1393.97 390.756Z" fill="url(#paint2_linear)"/>
<path fill-rule="evenodd" clip-rule="evenodd" d="M1675.43 384.655L1546.9 175.087H1623.58L1712.47 320.608L1801.35 175.087H1874.98L1746.45 384.655V497.937H1675.43V384.655Z" fill="url(#paint3_linear)"/>
<path fill-rule="evenodd" clip-rule="evenodd" d="M1905.46 175.087H1982.57L2131.14 378.558V175.087H2199.11V497.937H2133.76L1973.86 280.092V497.937H1905.46V175.087Z" fill="url(#paint4_linear)"/>
<path fill-rule="evenodd" clip-rule="evenodd" d="M2353.09 239.572H2241.11V175.087H2536.51V239.572H2424.98V497.937H2353.09V239.572Z" fill="url(#paint5_linear)"/>
<path d="M1012.6 633L996.688 581.988H1006.28L1013.46 607.65C1014.29 610.562 1015.02 613.318 1015.64 615.918C1016.32 618.518 1017.1 621.3 1017.98 624.264H1018.29C1019.18 621.3 1019.93 618.518 1020.56 615.918C1021.23 613.318 1021.96 610.562 1022.74 607.65L1029.84 581.988H1039.12L1023.29 633H1012.6ZM1044.51 633V594.702H1053.48V633H1044.51ZM1049.04 587.994C1047.42 587.994 1046.1 587.526 1045.06 586.59C1044.02 585.654 1043.5 584.432 1043.5 582.924C1043.5 581.416 1044.02 580.194 1045.06 579.258C1046.1 578.27 1047.42 577.776 1049.04 577.776C1050.65 577.776 1051.97 578.27 1053.01 579.258C1054.05 580.194 1054.57 581.416 1054.57 582.924C1054.57 584.432 1054.05 585.654 1053.01 586.59C1051.97 587.526 1050.65 587.994 1049.04 587.994ZM1064.93 633V594.702H1072.34L1072.96 601.488H1073.27C1074.62 598.992 1076.26 597.094 1078.19 595.794C1080.11 594.442 1082.09 593.766 1084.11 593.766C1085.93 593.766 1087.39 594.026 1088.48 594.546L1086.92 602.346C1086.25 602.138 1085.62 601.982 1085.05 601.878C1084.48 601.774 1083.78 601.722 1082.94 601.722C1081.44 601.722 1079.85 602.32 1078.19 603.516C1076.52 604.66 1075.09 606.688 1073.9 609.6V633H1064.93ZM1101.25 633.936C1097.87 633.936 1095.14 632.922 1093.06 630.894C1090.98 628.814 1089.94 626.084 1089.94 622.704C1089.94 620.676 1090.36 618.882 1091.19 617.322C1092.07 615.71 1093.42 614.332 1095.24 613.188C1097.12 612.044 1099.46 611.082 1102.26 610.302C1105.12 609.522 1108.53 608.924 1112.48 608.508C1112.43 607.52 1112.27 606.584 1112.01 605.7C1111.81 604.764 1111.42 603.958 1110.84 603.282C1110.32 602.554 1109.62 602.008 1108.74 601.644C1107.85 601.228 1106.76 601.02 1105.46 601.02C1103.59 601.02 1101.74 601.384 1099.92 602.112C1098.16 602.84 1096.41 603.724 1094.7 604.764L1091.42 598.758C1093.55 597.406 1095.95 596.236 1098.6 595.248C1101.25 594.26 1104.11 593.766 1107.18 593.766C1111.96 593.766 1115.52 595.196 1117.86 598.056C1120.26 600.864 1121.45 604.946 1121.45 610.302V633H1114.04L1113.42 628.788H1113.11C1111.39 630.244 1109.54 631.466 1107.57 632.454C1105.64 633.442 1103.54 633.936 1101.25 633.936ZM1104.14 626.916C1105.7 626.916 1107.1 626.552 1108.35 625.824C1109.65 625.096 1111.03 624.056 1112.48 622.704V614.124C1109.88 614.436 1107.7 614.852 1105.93 615.372C1104.16 615.892 1102.73 616.49 1101.64 617.166C1100.55 617.79 1099.77 618.518 1099.3 619.35C1098.83 620.182 1098.6 621.066 1098.6 622.002C1098.6 623.718 1099.12 624.966 1100.16 625.746C1101.2 626.526 1102.52 626.916 1104.14 626.916ZM1140.92 633.936C1137.7 633.936 1135.44 632.974 1134.14 631.05C1132.84 629.126 1132.19 626.5 1132.19 623.172V577.932H1141.16V623.64C1141.16 624.732 1141.36 625.512 1141.78 625.98C1142.2 626.396 1142.64 626.604 1143.11 626.604C1143.31 626.604 1143.5 626.604 1143.65 626.604C1143.86 626.604 1144.15 626.552 1144.51 626.448L1145.68 633.156C1144.48 633.676 1142.9 633.936 1140.92 633.936ZM1190.12 633.936C1186.89 633.936 1183.88 633.364 1181.07 632.22C1178.26 631.076 1175.82 629.386 1173.74 627.15C1171.71 624.914 1170.1 622.158 1168.9 618.882C1167.7 615.606 1167.11 611.862 1167.11 607.65C1167.11 603.49 1167.7 599.772 1168.9 596.496C1170.15 593.168 1171.81 590.36 1173.89 588.072C1176.02 585.784 1178.49 584.042 1181.3 582.846C1184.16 581.65 1187.2 581.052 1190.43 581.052C1193.65 581.052 1196.51 581.702 1199.01 583.002C1201.5 584.302 1203.56 585.81 1205.17 587.526L1200.33 593.376C1198.98 592.024 1197.53 590.958 1195.97 590.178C1194.41 589.346 1192.64 588.93 1190.66 588.93C1188.58 588.93 1186.66 589.372 1184.89 590.256C1183.17 591.088 1181.67 592.31 1180.37 593.922C1179.12 595.482 1178.13 597.406 1177.4 599.694C1176.73 601.982 1176.39 604.556 1176.39 607.416C1176.39 613.24 1177.64 617.816 1180.13 621.144C1182.68 624.42 1186.11 626.058 1190.43 626.058C1192.72 626.058 1194.74 625.59 1196.51 624.654C1198.28 623.666 1199.89 622.392 1201.35 620.832L1206.18 626.526C1204.1 628.918 1201.71 630.764 1199.01 632.064C1196.36 633.312 1193.39 633.936 1190.12 633.936ZM1229.6 633.936C1227.2 633.936 1224.92 633.494 1222.73 632.61C1220.55 631.726 1218.6 630.426 1216.88 628.71C1215.22 626.994 1213.89 624.888 1212.9 622.392C1211.92 619.896 1211.42 617.062 1211.42 613.89C1211.42 610.718 1211.92 607.884 1212.9 605.388C1213.89 602.892 1215.22 600.786 1216.88 599.07C1218.6 597.354 1220.55 596.054 1222.73 595.17C1224.92 594.234 1227.2 593.766 1229.6 593.766C1231.99 593.766 1234.28 594.234 1236.46 595.17C1238.7 596.054 1240.65 597.354 1242.31 599.07C1243.97 600.786 1245.3 602.892 1246.29 605.388C1247.33 607.884 1247.85 610.718 1247.85 613.89C1247.85 617.062 1247.33 619.896 1246.29 622.392C1245.3 624.888 1243.97 626.994 1242.31 628.71C1240.65 630.426 1238.7 631.726 1236.46 632.61C1234.28 633.494 1231.99 633.936 1229.6 633.936ZM1229.6 626.604C1232.4 626.604 1234.61 625.46 1236.23 623.172C1237.84 620.832 1238.64 617.738 1238.64 613.89C1238.64 609.99 1237.84 606.896 1236.23 604.608C1234.61 602.268 1232.4 601.098 1229.6 601.098C1226.79 601.098 1224.58 602.268 1222.97 604.608C1221.41 606.896 1220.63 609.99 1220.63 613.89C1220.63 617.738 1221.41 620.832 1222.97 623.172C1224.58 625.46 1226.79 626.604 1229.6 626.604ZM1256.73 633V594.702H1264.14L1264.76 599.928H1265.07C1266.69 598.212 1268.43 596.756 1270.3 595.56C1272.22 594.364 1274.38 593.766 1276.77 593.766C1279.58 593.766 1281.82 594.364 1283.48 595.56C1285.2 596.756 1286.5 598.446 1287.38 600.63C1289.2 598.654 1291.1 597.016 1293.08 595.716C1295.05 594.416 1297.26 593.766 1299.71 593.766C1303.76 593.766 1306.75 595.092 1308.68 597.744C1310.6 600.344 1311.56 604.088 1311.56 608.976V633H1302.51V610.146C1302.51 606.974 1302.02 604.738 1301.03 603.438C1300.1 602.138 1298.64 601.488 1296.66 601.488C1294.27 601.488 1291.59 603.074 1288.63 606.246V633H1279.66V610.146C1279.66 606.974 1279.17 604.738 1278.18 603.438C1277.24 602.138 1275.76 601.488 1273.73 601.488C1271.34 601.488 1268.66 603.074 1265.7 606.246V633H1256.73ZM1322.46 633V594.702H1329.87L1330.5 599.928H1330.81C1332.42 598.212 1334.16 596.756 1336.04 595.56C1337.96 594.364 1340.12 593.766 1342.51 593.766C1345.32 593.766 1347.55 594.364 1349.22 595.56C1350.93 596.756 1352.23 598.446 1353.12 600.63C1354.94 598.654 1356.84 597.016 1358.81 595.716C1360.79 594.416 1363 593.766 1365.44 593.766C1369.5 593.766 1372.49 595.092 1374.41 597.744C1376.34 600.344 1377.3 604.088 1377.3 608.976V633H1368.25V610.146C1368.25 606.974 1367.76 604.738 1366.77 603.438C1365.83 602.138 1364.38 601.488 1362.4 601.488C1360.01 601.488 1357.33 603.074 1354.37 606.246V633H1345.4V610.146C1345.4 606.974 1344.9 604.738 1343.91 603.438C1342.98 602.138 1341.5 601.488 1339.47 601.488C1337.08 601.488 1334.4 603.074 1331.43 606.246V633H1322.46ZM1399.59 633.936C1395.48 633.936 1392.49 632.636 1390.62 630.036C1388.75 627.384 1387.81 623.614 1387.81 618.726V594.702H1396.78V617.556C1396.78 620.728 1397.25 622.964 1398.18 624.264C1399.12 625.564 1400.63 626.214 1402.71 626.214C1404.37 626.214 1405.83 625.798 1407.08 624.966C1408.38 624.134 1409.75 622.782 1411.21 620.91V594.702H1420.18V633H1412.85L1412.15 627.384H1411.91C1410.25 629.36 1408.43 630.946 1406.45 632.142C1404.53 633.338 1402.24 633.936 1399.59 633.936ZM1431.54 633V594.702H1438.95L1439.58 599.85H1439.89C1441.6 598.186 1443.45 596.756 1445.43 595.56C1447.45 594.364 1449.79 593.766 1452.45 593.766C1456.55 593.766 1459.54 595.092 1461.42 597.744C1463.29 600.344 1464.22 604.088 1464.22 608.976V633H1455.25V610.146C1455.25 606.974 1454.79 604.738 1453.85 603.438C1452.91 602.138 1451.38 601.488 1449.25 601.488C1447.58 601.488 1446.1 601.904 1444.8 602.736C1443.55 603.516 1442.12 604.686 1440.51 606.246V633H1431.54ZM1475.19 633V594.702H1484.16V633H1475.19ZM1479.71 587.994C1478.1 587.994 1476.77 587.526 1475.73 586.59C1474.69 585.654 1474.17 584.432 1474.17 582.924C1474.17 581.416 1474.69 580.194 1475.73 579.258C1476.77 578.27 1478.1 577.776 1479.71 577.776C1481.32 577.776 1482.65 578.27 1483.69 579.258C1484.73 580.194 1485.25 581.416 1485.25 582.924C1485.25 584.432 1484.73 585.654 1483.69 586.59C1482.65 587.526 1481.32 587.994 1479.71 587.994ZM1509.1 633.936C1506.86 633.936 1504.96 633.598 1503.4 632.922C1501.89 632.246 1500.65 631.31 1499.66 630.114C1498.72 628.866 1498.02 627.41 1497.55 625.746C1497.14 624.03 1496.93 622.132 1496.93 620.052V601.8H1491.47V595.092L1497.4 594.702L1498.49 584.25H1505.98V594.702H1515.73V601.8H1505.98V620.052C1505.98 624.524 1507.77 626.76 1511.36 626.76C1512.03 626.76 1512.71 626.682 1513.39 626.526C1514.11 626.37 1514.76 626.162 1515.34 625.902L1516.9 632.532C1515.86 632.896 1514.66 633.208 1513.31 633.468C1512.01 633.78 1510.6 633.936 1509.1 633.936ZM1526.36 648.756C1525.32 648.756 1524.41 648.678 1523.63 648.522C1522.85 648.418 1522.1 648.236 1521.37 647.976L1523.01 640.956C1523.37 641.06 1523.79 641.164 1524.25 641.268C1524.77 641.424 1525.27 641.502 1525.74 641.502C1527.76 641.502 1529.38 640.878 1530.57 639.63C1531.82 638.434 1532.76 636.874 1533.38 634.95L1534.08 632.532L1519.03 594.702H1528.15L1534.78 613.5C1535.36 615.164 1535.9 616.932 1536.42 618.804C1536.99 620.624 1537.57 622.444 1538.14 624.264H1538.45C1538.92 622.496 1539.39 620.702 1539.85 618.882C1540.37 617.01 1540.87 615.216 1541.34 613.5L1547.11 594.702H1555.77L1541.88 634.716C1541.1 636.9 1540.24 638.85 1539.31 640.566C1538.37 642.282 1537.28 643.738 1536.03 644.934C1534.84 646.182 1533.43 647.118 1531.82 647.742C1530.26 648.418 1528.44 648.756 1526.36 648.756ZM1599.16 633.936C1595.93 633.936 1592.92 633.364 1590.11 632.22C1587.3 631.076 1584.86 629.386 1582.78 627.15C1580.75 624.914 1579.14 622.158 1577.94 618.882C1576.75 615.606 1576.15 611.862 1576.15 607.65C1576.15 603.49 1576.75 599.772 1577.94 596.496C1579.19 593.168 1580.85 590.36 1582.93 588.072C1585.07 585.784 1587.54 584.042 1590.34 582.846C1593.2 581.65 1596.25 581.052 1599.47 581.052C1602.69 581.052 1605.55 581.702 1608.05 583.002C1610.55 584.302 1612.6 585.81 1614.21 587.526L1609.38 593.376C1608.02 592.024 1606.57 590.958 1605.01 590.178C1603.45 589.346 1601.68 588.93 1599.7 588.93C1597.62 588.93 1595.7 589.372 1593.93 590.256C1592.22 591.088 1590.71 592.31 1589.41 593.922C1588.16 595.482 1587.17 597.406 1586.44 599.694C1585.77 601.982 1585.43 604.556 1585.43 607.416C1585.43 613.24 1586.68 617.816 1589.17 621.144C1591.72 624.42 1595.15 626.058 1599.47 626.058C1601.76 626.058 1603.79 625.59 1605.55 624.654C1607.32 623.666 1608.93 622.392 1610.39 620.832L1615.23 626.526C1613.15 628.918 1610.75 630.764 1608.05 632.064C1605.4 633.312 1602.43 633.936 1599.16 633.936ZM1638.64 633.936C1636.25 633.936 1633.96 633.494 1631.78 632.61C1629.59 631.726 1627.64 630.426 1625.93 628.71C1624.26 626.994 1622.94 624.888 1621.95 622.392C1620.96 619.896 1620.47 617.062 1620.47 613.89C1620.47 610.718 1620.96 607.884 1621.95 605.388C1622.94 602.892 1624.26 600.786 1625.93 599.07C1627.64 597.354 1629.59 596.054 1631.78 595.17C1633.96 594.234 1636.25 593.766 1638.64 593.766C1641.03 593.766 1643.32 594.234 1645.5 595.17C1647.74 596.054 1649.69 597.354 1651.35 599.07C1653.02 600.786 1654.34 602.892 1655.33 605.388C1656.37 607.884 1656.89 610.718 1656.89 613.89C1656.89 617.062 1656.37 619.896 1655.33 622.392C1654.34 624.888 1653.02 626.994 1651.35 628.71C1649.69 630.426 1647.74 631.726 1645.5 632.61C1643.32 633.494 1641.03 633.936 1638.64 633.936ZM1638.64 626.604C1641.45 626.604 1643.66 625.46 1645.27 623.172C1646.88 620.832 1647.69 617.738 1647.69 613.89C1647.69 609.99 1646.88 606.896 1645.27 604.608C1643.66 602.268 1641.45 601.098 1638.64 601.098C1635.83 601.098 1633.62 602.268 1632.01 604.608C1630.45 606.896 1629.67 609.99 1629.67 613.89C1629.67 617.738 1630.45 620.832 1632.01 623.172C1633.62 625.46 1635.83 626.604 1638.64 626.604ZM1674.51 633.936C1671.28 633.936 1669.02 632.974 1667.72 631.05C1666.42 629.126 1665.77 626.5 1665.77 623.172V577.932H1674.74V623.64C1674.74 624.732 1674.95 625.512 1675.36 625.98C1675.78 626.396 1676.22 626.604 1676.69 626.604C1676.9 626.604 1677.08 626.604 1677.24 626.604C1677.44 626.604 1677.73 626.552 1678.09 626.448L1679.26 633.156C1678.07 633.676 1676.48 633.936 1674.51 633.936ZM1695.68 633.936C1692.46 633.936 1690.2 632.974 1688.9 631.05C1687.6 629.126 1686.95 626.5 1686.95 623.172V577.932H1695.92V623.64C1695.92 624.732 1696.12 625.512 1696.54 625.98C1696.96 626.396 1697.4 626.604 1697.87 626.604C1698.07 626.604 1698.26 626.604 1698.41 626.604C1698.62 626.604 1698.91 626.552 1699.27 626.448L1700.44 633.156C1699.24 633.676 1697.66 633.936 1695.68 633.936ZM1724.5 633.936C1721.85 633.936 1719.38 633.494 1717.09 632.61C1714.8 631.674 1712.8 630.348 1711.09 628.632C1709.37 626.916 1708.02 624.836 1707.03 622.392C1706.09 619.896 1705.63 617.062 1705.63 613.89C1705.63 610.77 1706.12 607.962 1707.11 605.466C1708.1 602.97 1709.4 600.864 1711.01 599.148C1712.67 597.432 1714.57 596.106 1716.7 595.17C1718.83 594.234 1721.02 593.766 1723.25 593.766C1725.85 593.766 1728.14 594.208 1730.12 595.092C1732.09 595.976 1733.73 597.224 1735.03 598.836C1736.38 600.448 1737.4 602.372 1738.07 604.608C1738.75 606.844 1739.09 609.288 1739.09 611.94C1739.09 612.824 1739.04 613.656 1738.93 614.436C1738.88 615.216 1738.8 615.84 1738.7 616.308H1714.36C1714.78 619.74 1715.97 622.392 1717.95 624.264C1719.98 626.084 1722.55 626.994 1725.67 626.994C1727.34 626.994 1728.87 626.76 1730.27 626.292C1731.73 625.772 1733.16 625.07 1734.56 624.186L1737.61 629.802C1735.79 630.998 1733.76 631.986 1731.52 632.766C1729.29 633.546 1726.95 633.936 1724.5 633.936ZM1714.28 610.224H1731.29C1731.29 607.26 1730.64 604.946 1729.34 603.282C1728.09 601.566 1726.14 600.708 1723.49 600.708C1721.2 600.708 1719.2 601.514 1717.48 603.126C1715.77 604.738 1714.7 607.104 1714.28 610.224ZM1763.64 633.936C1761.04 633.936 1758.6 633.494 1756.31 632.61C1754.08 631.726 1752.13 630.426 1750.46 628.71C1748.8 626.994 1747.5 624.888 1746.56 622.392C1745.63 619.896 1745.16 617.062 1745.16 613.89C1745.16 610.718 1745.68 607.884 1746.72 605.388C1747.76 602.892 1749.16 600.786 1750.93 599.07C1752.7 597.354 1754.73 596.054 1757.01 595.17C1759.35 594.234 1761.8 593.766 1764.35 593.766C1766.84 593.766 1768.97 594.182 1770.74 595.014C1772.56 595.846 1774.17 596.86 1775.58 598.056L1771.21 603.906C1770.17 603.022 1769.13 602.346 1768.09 601.878C1767.1 601.358 1766.01 601.098 1764.81 601.098C1761.69 601.098 1759.17 602.268 1757.25 604.608C1755.32 606.896 1754.36 609.99 1754.36 613.89C1754.36 617.738 1755.3 620.832 1757.17 623.172C1759.09 625.46 1761.56 626.604 1764.58 626.604C1766.09 626.604 1767.49 626.292 1768.79 625.668C1770.14 624.992 1771.37 624.212 1772.46 623.328L1776.12 629.256C1774.3 630.816 1772.3 631.986 1770.12 632.766C1767.99 633.546 1765.83 633.936 1763.64 633.936ZM1796.42 633.936C1794.18 633.936 1792.28 633.598 1790.72 632.922C1789.21 632.246 1787.97 631.31 1786.98 630.114C1786.04 628.866 1785.34 627.41 1784.87 625.746C1784.46 624.03 1784.25 622.132 1784.25 620.052V601.8H1778.79V595.092L1784.72 594.702L1785.81 584.25H1793.3V594.702H1803.05V601.8H1793.3V620.052C1793.3 624.524 1795.09 626.76 1798.68 626.76C1799.35 626.76 1800.03 626.682 1800.71 626.526C1801.43 626.37 1802.08 626.162 1802.66 625.902L1804.22 632.532C1803.18 632.896 1801.98 633.208 1800.63 633.468C1799.33 633.78 1797.92 633.936 1796.42 633.936ZM1811.11 633V594.702H1820.08V633H1811.11ZM1815.63 587.994C1814.02 587.994 1812.69 587.526 1811.65 586.59C1810.61 585.654 1810.09 584.432 1810.09 582.924C1810.09 581.416 1810.61 580.194 1811.65 579.258C1812.69 578.27 1814.02 577.776 1815.63 577.776C1817.24 577.776 1818.57 578.27 1819.61 579.258C1820.65 580.194 1821.17 581.416 1821.17 582.924C1821.17 584.432 1820.65 585.654 1819.61 586.59C1818.57 587.526 1817.24 587.994 1815.63 587.994ZM1850.08 633.936C1848.32 633.936 1846.52 633.52 1844.7 632.688C1842.93 631.804 1841.24 630.556 1839.63 628.944H1839.4L1838.62 633H1831.52V577.932H1840.49V592.128L1840.26 598.524C1841.87 597.12 1843.61 595.976 1845.48 595.092C1847.41 594.208 1849.36 593.766 1851.33 593.766C1853.72 593.766 1855.86 594.234 1857.73 595.17C1859.6 596.054 1861.19 597.354 1862.49 599.07C1863.79 600.734 1864.77 602.762 1865.45 605.154C1866.13 607.546 1866.46 610.224 1866.46 613.188C1866.46 616.464 1866 619.402 1865.06 622.002C1864.18 624.55 1862.98 626.708 1861.47 628.476C1859.96 630.244 1858.22 631.596 1856.25 632.532C1854.27 633.468 1852.22 633.936 1850.08 633.936ZM1848.21 626.526C1850.76 626.526 1852.89 625.434 1854.61 623.25C1856.32 621.014 1857.18 617.712 1857.18 613.344C1857.18 609.496 1856.53 606.506 1855.23 604.374C1853.93 602.242 1851.83 601.176 1848.91 601.176C1846.21 601.176 1843.4 602.606 1840.49 605.466V623.328C1841.84 624.524 1843.17 625.356 1844.47 625.824C1845.82 626.292 1847.07 626.526 1848.21 626.526ZM1884.21 633.936C1880.98 633.936 1878.72 632.974 1877.42 631.05C1876.12 629.126 1875.47 626.5 1875.47 623.172V577.932H1884.44V623.64C1884.44 624.732 1884.65 625.512 1885.07 625.98C1885.48 626.396 1885.92 626.604 1886.39 626.604C1886.6 626.604 1886.78 626.604 1886.94 626.604C1887.15 626.604 1887.43 626.552 1887.8 626.448L1888.97 633.156C1887.77 633.676 1886.18 633.936 1884.21 633.936ZM1913.03 633.936C1910.38 633.936 1907.91 633.494 1905.62 632.61C1903.33 631.674 1901.33 630.348 1899.61 628.632C1897.9 626.916 1896.54 624.836 1895.56 622.392C1894.62 619.896 1894.15 617.062 1894.15 613.89C1894.15 610.77 1894.65 607.962 1895.63 605.466C1896.62 602.97 1897.92 600.864 1899.53 599.148C1901.2 597.432 1903.1 596.106 1905.23 595.17C1907.36 594.234 1909.54 593.766 1911.78 593.766C1914.38 593.766 1916.67 594.208 1918.64 595.092C1920.62 595.976 1922.26 597.224 1923.56 598.836C1924.91 600.448 1925.92 602.372 1926.6 604.608C1927.28 606.844 1927.61 609.288 1927.61 611.94C1927.61 612.824 1927.56 613.656 1927.46 614.436C1927.41 615.216 1927.33 615.84 1927.22 616.308H1902.89C1903.3 619.74 1904.5 622.392 1906.48 624.264C1908.5 626.084 1911.08 626.994 1914.2 626.994C1915.86 626.994 1917.4 626.76 1918.8 626.292C1920.26 625.772 1921.69 625.07 1923.09 624.186L1926.13 629.802C1924.31 630.998 1922.28 631.986 1920.05 632.766C1917.81 633.546 1915.47 633.936 1913.03 633.936ZM1902.81 610.224H1919.81C1919.81 607.26 1919.16 604.946 1917.86 603.282C1916.62 601.566 1914.67 600.708 1912.01 600.708C1909.73 600.708 1907.72 601.514 1906.01 603.126C1904.29 604.738 1903.23 607.104 1902.81 610.224ZM1946.87 633.936C1944.21 633.936 1941.59 633.442 1938.99 632.454C1936.44 631.414 1934.23 630.14 1932.36 628.632L1936.57 622.86C1938.29 624.212 1939.98 625.278 1941.64 626.058C1943.36 626.786 1945.2 627.15 1947.18 627.15C1949.26 627.15 1950.79 626.734 1951.78 625.902C1952.77 625.018 1953.26 623.9 1953.26 622.548C1953.26 621.768 1953.03 621.092 1952.56 620.52C1952.09 619.896 1951.47 619.35 1950.69 618.882C1949.91 618.414 1949.02 617.998 1948.04 617.634C1947.05 617.218 1946.06 616.802 1945.07 616.386C1943.82 615.918 1942.55 615.372 1941.25 614.748C1939.95 614.124 1938.78 613.37 1937.74 612.486C1936.75 611.602 1935.92 610.588 1935.24 609.444C1934.62 608.248 1934.31 606.844 1934.31 605.232C1934.31 601.852 1935.56 599.096 1938.05 596.964C1940.55 594.832 1943.95 593.766 1948.27 593.766C1950.92 593.766 1953.31 594.234 1955.45 595.17C1957.58 596.106 1959.42 597.172 1960.98 598.368L1956.85 603.828C1955.5 602.84 1954.12 602.06 1952.72 601.488C1951.36 600.864 1949.93 600.552 1948.43 600.552C1946.5 600.552 1945.07 600.968 1944.14 601.8C1943.25 602.58 1942.81 603.568 1942.81 604.764C1942.81 605.544 1943.02 606.22 1943.43 606.792C1943.9 607.312 1944.5 607.78 1945.23 608.196C1945.96 608.612 1946.79 609.002 1947.72 609.366C1948.71 609.73 1949.73 610.094 1950.77 610.458C1952.07 610.926 1953.37 611.472 1954.67 612.096C1955.97 612.668 1957.14 613.396 1958.18 614.28C1959.27 615.164 1960.13 616.256 1960.75 617.556C1961.43 618.804 1961.76 620.312 1961.76 622.08C1961.76 623.744 1961.43 625.304 1960.75 626.76C1960.13 628.164 1959.19 629.412 1957.94 630.504C1956.69 631.544 1955.13 632.376 1953.26 633C1951.39 633.624 1949.26 633.936 1946.87 633.936ZM2006.53 633.936C2003.3 633.936 2000.29 633.364 1997.48 632.22C1994.67 631.076 1992.23 629.386 1990.15 627.15C1988.12 624.914 1986.51 622.158 1985.31 618.882C1984.11 615.606 1983.52 611.862 1983.52 607.65C1983.52 603.49 1984.11 599.772 1985.31 596.496C1986.56 593.168 1988.22 590.36 1990.3 588.072C1992.43 585.784 1994.9 584.042 1997.71 582.846C2000.57 581.65 2003.61 581.052 2006.84 581.052C2010.06 581.052 2012.92 581.702 2015.42 583.002C2017.91 584.302 2019.97 585.81 2021.58 587.526L2016.74 593.376C2015.39 592.024 2013.94 590.958 2012.38 590.178C2010.82 589.346 2009.05 588.93 2007.07 588.93C2004.99 588.93 2003.07 589.372 2001.3 590.256C1999.58 591.088 1998.08 592.31 1996.78 593.922C1995.53 595.482 1994.54 597.406 1993.81 599.694C1993.14 601.982 1992.8 604.556 1992.8 607.416C1992.8 613.24 1994.05 617.816 1996.54 621.144C1999.09 624.42 2002.52 626.058 2006.84 626.058C2009.13 626.058 2011.15 625.59 2012.92 624.654C2014.69 623.666 2016.3 622.392 2017.76 620.832L2022.59 626.526C2020.51 628.918 2018.12 630.764 2015.42 632.064C2012.77 633.312 2009.8 633.936 2006.53 633.936ZM2046.01 633.936C2043.61 633.936 2041.33 633.494 2039.14 632.61C2036.96 631.726 2035.01 630.426 2033.29 628.71C2031.63 626.994 2030.3 624.888 2029.31 622.392C2028.33 619.896 2027.83 617.062 2027.83 613.89C2027.83 610.718 2028.33 607.884 2029.31 605.388C2030.3 602.892 2031.63 600.786 2033.29 599.07C2035.01 597.354 2036.96 596.054 2039.14 595.17C2041.33 594.234 2043.61 593.766 2046.01 593.766C2048.4 593.766 2050.69 594.234 2052.87 595.17C2055.11 596.054 2057.06 597.354 2058.72 599.07C2060.38 600.786 2061.71 602.892 2062.7 605.388C2063.74 607.884 2064.26 610.718 2064.26 613.89C2064.26 617.062 2063.74 619.896 2062.7 622.392C2061.71 624.888 2060.38 626.994 2058.72 628.71C2057.06 630.426 2055.11 631.726 2052.87 632.61C2050.69 633.494 2048.4 633.936 2046.01 633.936ZM2046.01 626.604C2048.81 626.604 2051.02 625.46 2052.64 623.172C2054.25 620.832 2055.05 617.738 2055.05 613.89C2055.05 609.99 2054.25 606.896 2052.64 604.608C2051.02 602.268 2048.81 601.098 2046.01 601.098C2043.2 601.098 2040.99 602.268 2039.38 604.608C2037.82 606.896 2037.04 609.99 2037.04 613.89C2037.04 617.738 2037.82 620.832 2039.38 623.172C2040.99 625.46 2043.2 626.604 2046.01 626.604ZM2073.14 633V594.702H2080.55L2081.17 599.928H2081.48C2083.1 598.212 2084.84 596.756 2086.71 595.56C2088.63 594.364 2090.79 593.766 2093.18 593.766C2095.99 593.766 2098.23 594.364 2099.89 595.56C2101.61 596.756 2102.91 598.446 2103.79 600.63C2105.61 598.654 2107.51 597.016 2109.49 595.716C2111.46 594.416 2113.67 593.766 2116.12 593.766C2120.17 593.766 2123.16 595.092 2125.09 597.744C2127.01 600.344 2127.97 604.088 2127.97 608.976V633H2118.92V610.146C2118.92 606.974 2118.43 604.738 2117.44 603.438C2116.51 602.138 2115.05 601.488 2113.07 601.488C2110.68 601.488 2108 603.074 2105.04 606.246V633H2096.07V610.146C2096.07 606.974 2095.58 604.738 2094.59 603.438C2093.65 602.138 2092.17 601.488 2090.14 601.488C2087.75 601.488 2085.07 603.074 2082.11 606.246V633H2073.14ZM2138.87 633V594.702H2147.84V633H2138.87ZM2143.4 587.994C2141.79 587.994 2140.46 587.526 2139.42 586.59C2138.38 585.654 2137.86 584.432 2137.86 582.924C2137.86 581.416 2138.38 580.194 2139.42 579.258C2140.46 578.27 2141.79 577.776 2143.4 577.776C2145.01 577.776 2146.34 578.27 2147.38 579.258C2148.42 580.194 2148.94 581.416 2148.94 582.924C2148.94 584.432 2148.42 585.654 2147.38 586.59C2146.34 587.526 2145.01 587.994 2143.4 587.994ZM2159.29 633V594.702H2166.7L2167.32 599.85H2167.63C2169.35 598.186 2171.2 596.756 2173.17 595.56C2175.2 594.364 2177.54 593.766 2180.19 593.766C2184.3 593.766 2187.29 595.092 2189.16 597.744C2191.03 600.344 2191.97 604.088 2191.97 608.976V633H2183V610.146C2183 606.974 2182.53 604.738 2181.6 603.438C2180.66 602.138 2179.13 601.488 2176.99 601.488C2175.33 601.488 2173.85 601.904 2172.55 602.736C2171.3 603.516 2169.87 604.686 2168.26 606.246V633H2159.29ZM2216.27 649.926C2213.98 649.926 2211.85 649.718 2209.88 649.302C2207.95 648.886 2206.29 648.262 2204.88 647.43C2203.48 646.598 2202.36 645.558 2201.53 644.31C2200.75 643.062 2200.36 641.606 2200.36 639.942C2200.36 638.33 2200.83 636.822 2201.76 635.418C2202.7 634.066 2204.05 632.844 2205.82 631.752V631.44C2204.83 630.816 2204 629.984 2203.32 628.944C2202.7 627.904 2202.39 626.604 2202.39 625.044C2202.39 623.536 2202.8 622.184 2203.64 620.988C2204.52 619.74 2205.51 618.726 2206.6 617.946V617.634C2205.3 616.646 2204.13 615.294 2203.09 613.578C2202.1 611.81 2201.61 609.782 2201.61 607.494C2201.61 605.31 2202.02 603.36 2202.86 601.644C2203.69 599.928 2204.78 598.498 2206.13 597.354C2207.54 596.158 2209.15 595.274 2210.97 594.702C2212.79 594.078 2214.71 593.766 2216.74 593.766C2217.78 593.766 2218.77 593.87 2219.7 594.078C2220.69 594.234 2221.58 594.442 2222.36 594.702H2236.08V601.332H2229.06C2229.69 602.06 2230.21 602.996 2230.62 604.14C2231.04 605.232 2231.25 606.454 2231.25 607.806C2231.25 609.938 2230.86 611.81 2230.08 613.422C2229.35 615.034 2228.34 616.386 2227.04 617.478C2225.74 618.57 2224.2 619.402 2222.43 619.974C2220.67 620.546 2218.77 620.832 2216.74 620.832C2215.91 620.832 2215.05 620.754 2214.17 620.598C2213.28 620.442 2212.4 620.182 2211.51 619.818C2210.94 620.338 2210.47 620.858 2210.11 621.378C2209.8 621.898 2209.64 622.6 2209.64 623.484C2209.64 624.576 2210.08 625.434 2210.97 626.058C2211.9 626.682 2213.54 626.994 2215.88 626.994H2222.67C2227.3 626.994 2230.78 627.748 2233.12 629.256C2235.51 630.712 2236.71 633.104 2236.71 636.432C2236.71 638.304 2236.21 640.072 2235.23 641.736C2234.29 643.4 2232.94 644.83 2231.17 646.026C2229.4 647.222 2227.24 648.158 2224.7 648.834C2222.2 649.562 2219.39 649.926 2216.27 649.926ZM2216.74 615.216C2218.56 615.216 2220.12 614.566 2221.42 613.266C2222.72 611.914 2223.37 609.99 2223.37 607.494C2223.37 605.102 2222.72 603.256 2221.42 601.956C2220.17 600.604 2218.61 599.928 2216.74 599.928C2214.87 599.928 2213.28 600.578 2211.98 601.878C2210.68 603.178 2210.03 605.05 2210.03 607.494C2210.03 609.99 2210.68 611.914 2211.98 613.266C2213.28 614.566 2214.87 615.216 2216.74 615.216ZM2217.68 644.076C2220.8 644.076 2223.29 643.452 2225.16 642.204C2227.09 641.008 2228.05 639.578 2228.05 637.914C2228.05 636.406 2227.45 635.392 2226.26 634.872C2225.11 634.352 2223.45 634.092 2221.26 634.092H2216.04C2213.96 634.092 2212.22 633.91 2210.81 633.546C2208.84 635.054 2207.85 636.744 2207.85 638.616C2207.85 640.332 2208.71 641.658 2210.42 642.594C2212.19 643.582 2214.61 644.076 2217.68 644.076ZM2274.75 633.936C2271.32 633.936 2267.99 633.286 2264.77 631.986C2261.59 630.686 2258.79 628.84 2256.34 626.448L2261.65 620.286C2263.47 622.002 2265.55 623.406 2267.89 624.498C2270.23 625.538 2272.57 626.058 2274.91 626.058C2277.82 626.058 2280.03 625.46 2281.54 624.264C2283.04 623.068 2283.8 621.482 2283.8 619.506C2283.8 618.466 2283.59 617.582 2283.17 616.854C2282.81 616.126 2282.26 615.502 2281.54 614.982C2280.86 614.41 2280.03 613.89 2279.04 613.422C2278.1 612.954 2277.06 612.486 2275.92 612.018L2268.9 608.976C2267.65 608.456 2266.4 607.806 2265.16 607.026C2263.96 606.246 2262.87 605.31 2261.88 604.218C2260.89 603.126 2260.09 601.852 2259.46 600.396C2258.89 598.94 2258.6 597.276 2258.6 595.404C2258.6 593.376 2259.02 591.504 2259.85 589.788C2260.74 588.02 2261.93 586.486 2263.44 585.186C2264.95 583.886 2266.74 582.872 2268.82 582.144C2270.95 581.416 2273.27 581.052 2275.76 581.052C2278.73 581.052 2281.59 581.65 2284.34 582.846C2287.1 583.99 2289.47 585.55 2291.44 587.526L2286.84 593.298C2285.18 591.946 2283.46 590.88 2281.69 590.1C2279.92 589.32 2277.95 588.93 2275.76 588.93C2273.32 588.93 2271.37 589.476 2269.91 590.568C2268.46 591.608 2267.73 593.064 2267.73 594.936C2267.73 595.924 2267.94 596.782 2268.35 597.51C2268.82 598.186 2269.42 598.81 2270.15 599.382C2270.93 599.902 2271.81 600.396 2272.8 600.864C2273.79 601.28 2274.8 601.696 2275.84 602.112L2282.78 604.998C2284.29 605.622 2285.67 606.35 2286.92 607.182C2288.17 608.014 2289.23 608.976 2290.12 610.068C2291.05 611.16 2291.78 612.434 2292.3 613.89C2292.82 615.294 2293.08 616.932 2293.08 618.804C2293.08 620.884 2292.66 622.834 2291.83 624.654C2291 626.474 2289.78 628.086 2288.17 629.49C2286.61 630.842 2284.68 631.934 2282.39 632.766C2280.16 633.546 2277.61 633.936 2274.75 633.936ZM2317.25 633.936C2314.86 633.936 2312.57 633.494 2310.39 632.61C2308.21 631.726 2306.26 630.426 2304.54 628.71C2302.88 626.994 2301.55 624.888 2300.56 622.392C2299.57 619.896 2299.08 617.062 2299.08 613.89C2299.08 610.718 2299.57 607.884 2300.56 605.388C2301.55 602.892 2302.88 600.786 2304.54 599.07C2306.26 597.354 2308.21 596.054 2310.39 595.17C2312.57 594.234 2314.86 593.766 2317.25 593.766C2319.65 593.766 2321.93 594.234 2324.12 595.17C2326.35 596.054 2328.3 597.354 2329.97 599.07C2331.63 600.786 2332.96 602.892 2333.95 605.388C2334.99 607.884 2335.51 610.718 2335.51 613.89C2335.51 617.062 2334.99 619.896 2333.95 622.392C2332.96 624.888 2331.63 626.994 2329.97 628.71C2328.3 630.426 2326.35 631.726 2324.12 632.61C2321.93 633.494 2319.65 633.936 2317.25 633.936ZM2317.25 626.604C2320.06 626.604 2322.27 625.46 2323.88 623.172C2325.5 620.832 2326.3 617.738 2326.3 613.89C2326.3 609.99 2325.5 606.896 2323.88 604.608C2322.27 602.268 2320.06 601.098 2317.25 601.098C2314.45 601.098 2312.24 602.268 2310.62 604.608C2309.06 606.896 2308.28 609.99 2308.28 613.89C2308.28 617.738 2309.06 620.832 2310.62 623.172C2312.24 625.46 2314.45 626.604 2317.25 626.604ZM2360.06 633.936C2357.67 633.936 2355.38 633.494 2353.2 632.61C2351.02 631.726 2349.07 630.426 2347.35 628.71C2345.69 626.994 2344.36 624.888 2343.37 622.392C2342.38 619.896 2341.89 617.062 2341.89 613.89C2341.89 610.718 2342.38 607.884 2343.37 605.388C2344.36 602.892 2345.69 600.786 2347.35 599.07C2349.07 597.354 2351.02 596.054 2353.2 595.17C2355.38 594.234 2357.67 593.766 2360.06 593.766C2362.46 593.766 2364.74 594.234 2366.93 595.17C2369.16 596.054 2371.11 597.354 2372.78 599.07C2374.44 600.786 2375.77 602.892 2376.76 605.388C2377.8 607.884 2378.32 610.718 2378.32 613.89C2378.32 617.062 2377.8 619.896 2376.76 622.392C2375.77 624.888 2374.44 626.994 2372.78 628.71C2371.11 630.426 2369.16 631.726 2366.93 632.61C2364.74 633.494 2362.46 633.936 2360.06 633.936ZM2360.06 626.604C2362.87 626.604 2365.08 625.46 2366.69 623.172C2368.31 620.832 2369.11 617.738 2369.11 613.89C2369.11 609.99 2368.31 606.896 2366.69 604.608C2365.08 602.268 2362.87 601.098 2360.06 601.098C2357.26 601.098 2355.05 602.268 2353.43 604.608C2351.87 606.896 2351.09 609.99 2351.09 613.89C2351.09 617.738 2351.87 620.832 2353.43 623.172C2355.05 625.46 2357.26 626.604 2360.06 626.604ZM2387.19 633V594.702H2394.6L2395.23 599.85H2395.54C2397.26 598.186 2399.1 596.756 2401.08 595.56C2403.11 594.364 2405.45 593.766 2408.1 593.766C2412.21 593.766 2415.2 595.092 2417.07 597.744C2418.94 600.344 2419.88 604.088 2419.88 608.976V633H2410.91V610.146C2410.91 606.974 2410.44 604.738 2409.5 603.438C2408.57 602.138 2407.03 601.488 2404.9 601.488C2403.24 601.488 2401.75 601.904 2400.45 602.736C2399.21 603.516 2397.78 604.686 2396.16 606.246V633H2387.19Z" fill="#EC6EDF"/>
<path d="M997 640.8H2425.18V644.7H997V640.8Z" fill="#EC6EDF"/>
<defs>
<linearGradient id="paint0_linear" x1="346.87" y1="207.598" x2="461.9" y2="602.152" gradientUnits="userSpaceOnUse">
<stop stop-color="#66CCFF"/>
<stop offset="1" stop-color="#BE61FF"/>
</linearGradient>
<linearGradient id="paint1_linear" x1="872.233" y1="253.936" x2="1113.92" y2="388.203" gradientUnits="userSpaceOnUse">
<stop stop-color="#66CCFF"/>
<stop offset="1" stop-color="#BE61FF"/>
</linearGradient>
<linearGradient id="paint2_linear" x1="1285.42" y1="252.72" x2="1458.81" y2="364.223" gradientUnits="userSpaceOnUse">
<stop stop-color="#66CCFF"/>
<stop offset="1" stop-color="#BE61FF"/>
</linearGradient>
<linearGradient id="paint3_linear" x1="1546.9" y1="255.37" x2="1787.68" y2="388.413" gradientUnits="userSpaceOnUse">
<stop stop-color="#66CCFF"/>
<stop offset="1" stop-color="#BE61FF"/>
</linearGradient>
<linearGradient id="paint4_linear" x1="1930.81" y1="252.72" x2="2120.78" y2="369.997" gradientUnits="userSpaceOnUse">
<stop stop-color="#66CCFF"/>
<stop offset="1" stop-color="#BE61FF"/>
</linearGradient>
<linearGradient id="paint5_linear" x1="2265.16" y1="252.72" x2="2457.74" y2="370.902" gradientUnits="userSpaceOnUse">
<stop stop-color="#66CCFF"/>
<stop offset="1" stop-color="#BE61FF"/>
</linearGradient>
</defs>
</svg>
